<svg id="Layer_1" data-name="Layer 1" xmlns="http://www.w3.org/2000/svg" viewBox="0 0 556.74 198.96"><defs><style>.cls-1{fill:#7d8197;}.cls-2{fill:#f1f1f1;}.cls-3{fill:#fdb827;}</style></defs><path class="cls-1" d="M426.91,434.54a.79.79,0,0,1,.54.14l-.5.3Z" transform="translate(-12.67 -321.46)"/><path class="cls-2" d="M143,461.22q0-35.4,0-70.8v-2.67c-2.23.38-4.26.69-6.27,1.08-3.64.71-7.26,1.56-10.92,2.17-1.55.26-2,.85-2,2.4q.08,32.06,0,64.1c0,1.71-.1,3.42,0,5.12.13,1.52-.44,2.16-1.89,2.56q-16.94,4.68-33.82,9.5c-3.39,1-6.71,2.23-10.27,3.43v-72.8c-2.24.77-4.16,1.35-6,2.09C67.89,409,64,410.75,60,412.24a2,2,0,0,0-1.52,2.3c0,8.35,0,16.7,0,25q0,22.47,0,45c0,1.12-.11,1.84-1.35,2.38a406.08,406.08,0,0,0-43.79,22.22,4.35,4.35,0,0,1-.75.23V507q0-48.12,0-96.24c0-24.56,8.76-45.66,25.85-63.21,13.79-14.17,30.62-23.07,50.21-25.33,36.38-4.21,65.14,9.27,85.88,39.46,9.84,14.33,14.11,30.49,14.24,47.77.11,15.25,0,30.51,0,45.76,0,.38-.06.77-.1,1.29-2.62.28-5.2.56-7.79.81-7.08.66-14.16,1.24-21.23,2-5.5.57-11,1.34-16.47,2A.52.52,0,0,0,143,461.22Z" transform="translate(-12.67 -321.46)"/><path class="cls-3" d="M13.38,520.42c53.5-33.46,111.71-51.56,175.2-54-.9.51-1.41.84-2,1.11A570.29,570.29,0,0,0,101,519.34a5.21,5.21,0,0,1-2.82,1q-41.9.09-83.81,0Z" transform="translate(-12.67 -321.46)"/><path class="cls-3" d="M218.79,405.86c0-3.31.05-7,.14-9.23h-.14c-.91,4-2.85,10.44-4.71,16.52H210.5c-1.42-5.32-3.43-12.69-4.28-16.57h-.13c.16,2.28.25,6.28.25,9.61v7h-3.83V393.72h6.25c1.51,5.08,3.21,11.44,3.8,14.34h0c.47-2.55,2.61-9.36,4.23-14.34h6v19.43h-4.05Z" transform="translate(-12.67 -321.46)"/><path class="cls-3" d="M226.66,392.58h4v3.6h-4Zm0,6h4v14.59h-4Z" transform="translate(-12.67 -321.46)"/><path class="cls-3" d="M247,408.44c-.5,2.43-2.21,5.05-6.55,5.05-4.55,0-6.88-3.14-6.88-7.53s2.63-7.74,7.07-7.74c4.92,0,6.28,3.53,6.36,5.18H243a2.28,2.28,0,0,0-2.5-2c-1.84,0-2.89,1.62-2.89,4.45,0,3.11,1.11,4.52,2.87,4.52a2.49,2.49,0,0,0,2.5-1.91Z" transform="translate(-12.67 -321.46)"/><path class="cls-3" d="M253.47,392.58v7.7a4.69,4.69,0,0,1,4.18-2.06c2.72,0,4.88,1.61,4.88,5.57v9.36h-4v-8.76c0-1.89-.67-2.9-2.37-2.9-2.24,0-2.68,1.67-2.68,3.92v7.74h-4V392.58Z" transform="translate(-12.67 -321.46)"/><path class="cls-3" d="M266.16,392.58h4v3.6h-4Zm0,6h4v14.59h-4Z" transform="translate(-12.67 -321.46)"/><path class="cls-3" d="M287.1,411.37c0,4.68-1.73,7.65-7.25,7.65-5.33,0-6.38-3-6.52-4.62h4.12a2.32,2.32,0,0,0,2.58,1.68c2.62,0,3.11-1.6,3.11-4.46v-.69A4.32,4.32,0,0,1,279,413c-3.84,0-6-3.15-6-7.08,0-4.56,2.73-7.68,6.38-7.68,2.5,0,3.54,1.18,3.76,1.86,0-.39.13-1.28.16-1.52h3.83c0,1.3,0,2.78,0,4.19Zm-10-5.65c0,2.51,1.25,4,3,4,2.43,0,3.08-1.67,3.08-4.12s-.43-4.14-3-4.14C278.52,401.46,277.15,402.81,277.15,405.72Z" transform="translate(-12.67 -321.46)"/><path class="cls-3" d="M302.52,409.38a33.74,33.74,0,0,0,.2,3.77h-3.86a6.32,6.32,0,0,1-.2-1.43c-.53.82-1.52,1.77-4.1,1.77-3.52,0-5-2.32-5-4.58,0-3.32,2.66-4.85,6.94-4.85h2.08v-.9c0-1-.37-2.05-2.24-2.05-1.71,0-2.08.72-2.27,1.78h-3.84c.22-2.59,1.82-4.69,6.26-4.67,3.91,0,6,1.55,6,5Zm-3.93-2.87h-1.65c-2.43,0-3.34.74-3.34,2.15a1.87,1.87,0,0,0,2.1,1.94c2.57,0,2.89-1.78,2.89-3.71Z" transform="translate(-12.67 -321.46)"/><path class="cls-3" d="M306.2,402.24c0-1.24,0-2.6,0-3.68h3.91a15,15,0,0,1,.16,1.86,4.45,4.45,0,0,1,4.23-2.2c2.93,0,4.84,2,4.84,5.65v9.28h-4v-8.83c0-1.64-.55-2.83-2.33-2.83s-2.7.95-2.7,3.53v8.13h-4Z" transform="translate(-12.67 -321.46)"/><path class="cls-3" d="M343.09,392.58v16.56c0,1.33,0,2.67,0,4h-3.89c-.08-.44-.16-1.19-.18-1.52-.71,1.14-2,1.86-4.14,1.86-3.69,0-6-3-6-7.52s2.5-7.75,6.63-7.75c2.1,0,3.23.74,3.55,1.4v-7ZM333,405.87c0,2.84,1.11,4.38,3.09,4.38,2.77,0,3.09-2.31,3.09-4.41,0-2.49-.35-4.38-3-4.38C334.09,401.46,333,403.11,333,405.87Z" transform="translate(-12.67 -321.46)"/><path class="cls-3" d="M349.88,406.72c0,1.82.92,3.61,2.93,3.61a2.3,2.3,0,0,0,2.54-1.56h4c-.51,1.78-2.11,4.72-6.69,4.72-4.8,0-6.89-3.6-6.89-7.42,0-4.58,2.35-7.85,7-7.85,5,0,6.72,3.63,6.72,7.27a8,8,0,0,1-.06,1.23Zm5.63-2.48c0-1.7-.7-3.13-2.67-3.13s-2.72,1.34-2.88,3.13Z" transform="translate(-12.67 -321.46)"/><path class="cls-3" d="M375.19,408.44c-.51,2.43-2.22,5.05-6.56,5.05-4.54,0-6.88-3.14-6.88-7.53s2.63-7.74,7.07-7.74c4.92,0,6.29,3.53,6.37,5.18h-3.95a2.28,2.28,0,0,0-2.5-2c-1.84,0-2.89,1.62-2.89,4.45,0,3.11,1.11,4.52,2.88,4.52a2.49,2.49,0,0,0,2.49-1.91Z" transform="translate(-12.67 -321.46)"/><path class="cls-3" d="M391.46,405.83c0,4.41-2.64,7.66-7.26,7.66S377,410.26,377,405.9s2.72-7.68,7.36-7.68C388.68,398.22,391.46,401.25,391.46,405.83Zm-10.33,0c0,2.8,1.21,4.47,3.15,4.47s3.08-1.67,3.08-4.45c0-3.05-1.12-4.5-3.13-4.5S381.13,402.77,381.13,405.86Z" transform="translate(-12.67 -321.46)"/><path class="cls-3" d="M394.23,402.52c0-1.45,0-2.74,0-4h4c0,.33.11,1.78.11,2.56a4.69,4.69,0,0,1,4.68-2.9v3.86c-2.93-.08-4.68.71-4.68,4.71v6.36h-4Z" transform="translate(-12.67 -321.46)"/><path class="cls-3" d="M417,409.38a31.42,31.42,0,0,0,.2,3.77h-3.86a5.8,5.8,0,0,1-.21-1.43c-.53.82-1.52,1.77-4.1,1.77-3.52,0-5-2.32-5-4.58,0-3.32,2.67-4.85,6.95-4.85H413v-.9c0-1-.38-2.05-2.25-2.05-1.7,0-2.08.72-2.26,1.78h-3.84c.22-2.59,1.82-4.69,6.25-4.67,3.91,0,6,1.55,6,5ZM413,406.51h-1.64c-2.44,0-3.34.74-3.34,2.15a1.87,1.87,0,0,0,2.1,1.94c2.57,0,2.88-1.78,2.88-3.71Z" transform="translate(-12.67 -321.46)"/><path class="cls-3" d="M418.9,398.56h2.25v-3.95h4v3.95h2.86v3h-2.86v7.2c0,1.1.34,1.53,1.54,1.53a7.64,7.64,0,0,0,.92,0v2.78a9.23,9.23,0,0,1-2.71.28c-2.85,0-3.79-1.53-3.79-4.08V401.6H418.9Z" transform="translate(-12.67 -321.46)"/><path class="cls-3" d="M430.29,392.58h4v3.6h-4Zm0,6h4v14.59h-4Z" transform="translate(-12.67 -321.46)"/><path class="cls-3" d="M440.75,398.56c1.39,4.94,2.55,9.26,2.84,11h0c.4-2.41,1.83-6.81,3.1-11h4l-5.16,14.59h-4.24l-4.94-14.59Z" transform="translate(-12.67 -321.46)"/><path class="cls-3" d="M455.71,406.72c0,1.82.92,3.61,2.93,3.61a2.3,2.3,0,0,0,2.54-1.56h4.05c-.52,1.78-2.11,4.72-6.7,4.72-4.8,0-6.89-3.6-6.89-7.42,0-4.58,2.35-7.85,7-7.85,5,0,6.71,3.63,6.71,7.27a9.56,9.56,0,0,1-.05,1.23Zm5.64-2.48c0-1.7-.71-3.13-2.68-3.13s-2.71,1.34-2.87,3.13Z" transform="translate(-12.67 -321.46)"/><path class="cls-3" d="M487.33,408.44c-.5,2.43-2.21,5.05-6.56,5.05-4.54,0-6.87-3.14-6.87-7.53s2.62-7.74,7.06-7.74c4.92,0,6.29,3.53,6.37,5.18h-3.94a2.29,2.29,0,0,0-2.5-2c-1.85,0-2.9,1.62-2.9,4.45,0,3.11,1.11,4.52,2.88,4.52a2.48,2.48,0,0,0,2.49-1.91Z" transform="translate(-12.67 -321.46)"/><path class="cls-3" d="M503.6,405.83c0,4.41-2.64,7.66-7.26,7.66s-7.17-3.23-7.17-7.59,2.73-7.68,7.36-7.68C500.82,398.22,503.6,401.25,503.6,405.83Zm-10.33,0c0,2.8,1.21,4.47,3.16,4.47s3.07-1.67,3.07-4.45c0-3.05-1.12-4.5-3.13-4.5S493.27,402.77,493.27,405.86Z" transform="translate(-12.67 -321.46)"/><path class="cls-3" d="M518.39,409.38a34.42,34.42,0,0,0,.19,3.77h-3.86a6.32,6.32,0,0,1-.2-1.43c-.53.82-1.52,1.77-4.1,1.77-3.52,0-5-2.32-5-4.58,0-3.32,2.67-4.85,6.94-4.85h2.09v-.9c0-1-.38-2.05-2.25-2.05-1.71,0-2.08.72-2.26,1.78h-3.85c.22-2.59,1.83-4.69,6.26-4.67,3.91,0,6,1.55,6,5Zm-3.94-2.87H512.8c-2.43,0-3.33.74-3.33,2.15a1.87,1.87,0,0,0,2.1,1.94c2.56,0,2.88-1.78,2.88-3.71Z" transform="translate(-12.67 -321.46)"/><path class="cls-3" d="M520.34,398.56h2.25v-3.95h4v3.95h2.85v3h-2.85v7.2c0,1.1.33,1.53,1.54,1.53a7.72,7.72,0,0,0,.92,0v2.78a9.26,9.26,0,0,1-2.72.28c-2.84,0-3.78-1.53-3.78-4.08V401.6h-2.25Z" transform="translate(-12.67 -321.46)"/><path class="cls-3" d="M531.73,392.58h4v3.6h-4Zm0,6h4v14.59h-4Z" transform="translate(-12.67 -321.46)"/><path class="cls-3" d="M539.42,402.24c0-1.24,0-2.6,0-3.68h3.91a15,15,0,0,1,.16,1.86,4.45,4.45,0,0,1,4.23-2.2c2.93,0,4.84,2,4.84,5.65v9.28h-4v-8.83c0-1.64-.55-2.83-2.33-2.83s-2.7.95-2.7,3.53v8.13h-4Z" transform="translate(-12.67 -321.46)"/><path class="cls-3" d="M569.38,411.37c0,4.68-1.73,7.65-7.26,7.65-5.32,0-6.37-3-6.51-4.62h4.11a2.33,2.33,0,0,0,2.58,1.68c2.62,0,3.12-1.6,3.12-4.46v-.69a4.32,4.32,0,0,1-4.11,2.05c-3.85,0-6-3.15-6-7.08,0-4.56,2.73-7.68,6.37-7.68,2.51,0,3.55,1.18,3.77,1.86,0-.39.13-1.28.16-1.52h3.83c0,1.3,0,2.78,0,4.19Zm-10-5.65c0,2.51,1.26,4,3.05,4,2.43,0,3.08-1.67,3.08-4.12s-.44-4.14-3-4.14C560.8,401.46,559.42,402.81,559.42,405.72Z" transform="translate(-12.67 -321.46)"/><path class="cls-3" d="M361.73,427.53h4.2v16h9.68l-.48,3.44h-13.4Z" transform="translate(-12.67 -321.46)"/><path class="cls-3" d="M378.1,427.53h4.2v16H392L391.5,447H378.1Z" transform="translate(-12.67 -321.46)"/><path class="cls-3" d="M410.66,441c-.78,3.63-3.52,6.27-8.38,6.27-6.16,0-9.08-4.36-9.08-9.89,0-5.33,3-10.1,9.28-10.1,5.17,0,7.68,3,8.16,6.28h-4.2a3.82,3.82,0,0,0-4.09-3c-3.47,0-4.81,3.12-4.81,6.66,0,3.28,1.16,6.74,4.92,6.74a3.86,3.86,0,0,0,4-3Z" transform="translate(-12.67 -321.46)"/></svg>