<svg id="Layer_1" data-name="Layer 1" xmlns="http://www.w3.org/2000/svg" viewBox="0 0 524.45 591.98"><defs><style>.cls-1{fill:#7d8197;}.cls-2{fill:#f1f1f1;}.cls-3{fill:#fdb827;}</style></defs><path class="cls-1" d="M426.91,434.54a.79.79,0,0,1,.54.14l-.5.3Z" transform="translate(-39.77 -102.99)"/><path class="cls-2" d="M427.47,518.8q-.08-105.31-.13-210.64c0-2.31,0-4.62,0-7.94-6.62,1.13-12.66,2-18.65,3.22-10.84,2.11-21.6,4.64-32.49,6.45-4.62.77-5.91,2.51-5.9,7.15q.24,95.34.11,190.69c0,5.09-.32,10.2.09,15.25.37,4.52-1.31,6.43-5.63,7.62q-50.37,13.9-100.62,28.27c-10.1,2.9-20,6.63-30.56,10.18V352.46c-6.68,2.3-12.39,4-17.89,6.23-11.73,4.71-23.25,10-35.08,14.39-3.81,1.43-4.52,3.38-4.51,6.85.09,24.84.06,49.68.06,74.51q0,66.9.08,133.79c0,3.32-.33,5.48-4,7.08A1205.59,1205.59,0,0,0,42.05,661.43a13,13,0,0,1-2.24.67V655q0-143.17,0-286.34c.11-73.06,26.07-135.87,76.9-188.08,41-42.14,91.12-68.63,149.4-75.37C374.38,92.72,460,132.81,521.65,222.63c29.29,42.65,42,90.75,42.39,142.16.34,45.38.08,90.76.07,136.13,0,1.15-.16,2.3-.27,3.86-7.82.81-15.49,1.67-23.18,2.39-21.06,2-42.15,3.69-63.19,5.89-16.36,1.71-32.66,4-49,6A1.52,1.52,0,0,0,427.47,518.8Z" transform="translate(-39.77 -102.99)"/><path class="cls-3" d="M41.9,695C201.08,595.4,374.26,541.54,563.18,534.25c-2.68,1.52-4.22,2.51-5.85,3.31A1698.64,1698.64,0,0,0,302.49,691.75a15.48,15.48,0,0,1-8.37,3.09q-124.68.24-249.37.13Z" transform="translate(-39.77 -102.99)"/></svg>